<svg width="156" height="48" viewBox="0 0 156 48" fill="none" xmlns="http://www.w3.org/2000/svg">
<path fill-rule="evenodd" clip-rule="evenodd" d="M0 6.72462C0 3.01071 3.01071 0 6.72462 0H41.2752C44.9891 0 47.9998 3.01071 47.9998 6.72462V41.2752C47.9998 44.8165 45.2625 47.7185 41.7882 47.9806V48.0002H30.4941V11.3719L36.1412 7.90625L41.7882 11.3719V45.6515C43.9798 45.3973 45.681 43.5349 45.681 41.2752V6.72462C45.681 4.29137 43.7085 2.31883 41.2752 2.31883H6.72462C4.29137 2.31883 2.31883 4.29137 2.31883 6.72462V41.2752C2.31883 43.5351 4.02028 45.3976 6.21204 45.6515V25.7412L6.54838 25.4006C9.71948 22.1898 12.8718 21.8111 14.3177 22.1039L15.2473 22.2921V47.9998H7.42026V47.9998H6.72462L6.69224 47.9998H6.21204V47.9806C2.7376 47.7187 0 44.8167 0 41.2752V6.72462ZM8.52877 26.7131V45.6708H12.9306V24.3865C11.9243 24.5125 10.309 25.0384 8.52877 26.7131ZM28.8002 18.7062L21.7654 16.377L16.9414 19.7735V48.0004H28.8002V18.7062ZM19.3616 20.9582L20.7593 19.974V45.6679H19.3616V20.9582ZM26.38 45.6679H23.1794V19.3115L26.38 20.3712V45.6679ZM32.753 12.6882V45.6803H35.0118V11.3019L32.753 12.6882ZM37.2706 11.3019V45.6803H39.5294V12.6882L37.2706 11.3019ZM87.854 9.19114V11.0233H83.7505H83.0616H81.5322V0H83.0616H83.7505H87.8388V1.83974H83.7505V4.46686H87.2104V6.24604H83.7505V9.19114H87.854ZM106.082 25.9992C106.117 26.1607 106.135 26.3399 106.135 26.5368C106.135 26.774 106.097 26.986 106.021 27.1727C105.945 27.3595 105.819 27.5084 105.642 27.6194C105.471 27.7305 105.239 27.786 104.946 27.786C104.688 27.786 104.459 27.7532 104.257 27.6876C104.06 27.6169 103.894 27.5134 103.757 27.3771C103.621 27.2358 103.52 27.0491 103.454 26.8169C103.389 26.5797 103.356 26.2945 103.356 25.9614H101.138C101.138 26.5872 101.236 27.1298 101.433 27.5891C101.63 28.0434 101.9 28.4194 102.243 28.7172C102.591 29.0099 102.993 29.2295 103.447 29.3759C103.901 29.5172 104.383 29.5879 104.893 29.5879C105.418 29.5879 105.892 29.5147 106.316 29.3683C106.745 29.2219 107.111 29.015 107.414 28.7475C107.717 28.4749 107.947 28.1519 108.103 27.7784C108.264 27.3999 108.345 26.9809 108.345 26.5216C108.345 26.0573 108.28 25.6434 108.148 25.28C108.017 24.9166 107.823 24.591 107.565 24.3033C107.308 24.0106 106.988 23.7481 106.604 23.516C106.22 23.2787 105.779 23.0617 105.279 22.8649C105.022 22.7639 104.784 22.6604 104.567 22.5544C104.355 22.4485 104.171 22.3399 104.015 22.2289C103.858 22.1128 103.735 21.9841 103.644 21.8428C103.558 21.6964 103.515 21.5324 103.515 21.3507C103.515 21.1084 103.558 20.8914 103.644 20.6996C103.735 20.5027 103.871 20.3488 104.053 20.2377C104.239 20.1216 104.474 20.0636 104.757 20.0636C105.059 20.0636 105.307 20.1317 105.499 20.268C105.69 20.4043 105.829 20.5936 105.915 20.8358C106.006 21.0731 106.051 21.3481 106.051 21.6611H108.262C108.262 20.9999 108.118 20.4144 107.83 19.9046C107.548 19.3948 107.147 18.9936 106.627 18.7008C106.112 18.4081 105.501 18.2617 104.794 18.2617C104.275 18.2617 103.803 18.3349 103.379 18.4813C102.96 18.6276 102.594 18.8371 102.281 19.1097C101.968 19.3772 101.726 19.7002 101.554 20.0787C101.388 20.4573 101.304 20.8787 101.304 21.3431C101.304 21.8175 101.393 22.2314 101.569 22.5847C101.751 22.933 101.996 23.2358 102.304 23.4932C102.612 23.7507 102.957 23.9778 103.341 24.1746C103.724 24.3664 104.121 24.5481 104.529 24.7197C104.873 24.8661 105.15 25.0074 105.362 25.1437C105.579 25.28 105.743 25.4163 105.854 25.5525C105.97 25.6888 106.046 25.8377 106.082 25.9992ZM152.826 20.2519V29.4354H150.623V20.2519H147.936V18.4121H150.623H152.826H155.567V20.2519H152.826ZM153.415 44.4113C153.45 44.5729 153.468 44.752 153.468 44.9489C153.468 45.1861 153.43 45.3981 153.354 45.5848C153.278 45.7716 153.152 45.9205 152.975 46.0315C152.804 46.1426 152.572 46.1981 152.279 46.1981C152.021 46.1981 151.792 46.1653 151.59 46.0997C151.393 46.029 151.227 45.9255 151.09 45.7893C150.954 45.6479 150.853 45.4612 150.787 45.229C150.722 44.9918 150.689 44.7066 150.689 44.3735H148.471C148.471 44.9994 148.569 45.5419 148.766 46.0012C148.963 46.4555 149.233 46.8315 149.576 47.1293C149.924 47.4221 150.326 47.6416 150.78 47.788C151.234 47.9293 151.716 48 152.226 48C152.751 48 153.225 47.9268 153.649 47.7804C154.078 47.634 154.444 47.4271 154.747 47.1596C155.05 46.887 155.28 46.564 155.436 46.1905C155.597 45.812 155.678 45.393 155.678 44.9337C155.678 44.4694 155.613 44.0555 155.481 43.6921C155.35 43.3287 155.156 43.0031 154.898 42.7154C154.641 42.4227 154.321 42.1602 153.937 41.9281C153.553 41.6908 153.112 41.4738 152.612 41.277C152.355 41.176 152.117 41.0726 151.9 40.9666C151.688 40.8606 151.504 40.752 151.348 40.641C151.191 40.5249 151.068 40.3962 150.977 40.2549C150.891 40.1085 150.848 39.9445 150.848 39.7628C150.848 39.5205 150.891 39.3035 150.977 39.1117C151.068 38.9148 151.204 38.7609 151.386 38.6498C151.572 38.5338 151.807 38.4757 152.09 38.4757C152.392 38.4757 152.64 38.5439 152.832 38.6801C153.023 38.8164 153.162 39.0057 153.248 39.248C153.339 39.4852 153.384 39.7603 153.384 40.0732H155.595C155.595 39.412 155.451 38.8265 155.163 38.3167C154.881 37.8069 154.48 37.4057 153.96 37.1129C153.445 36.8202 152.834 36.6738 152.127 36.6738C151.608 36.6738 151.136 36.747 150.712 36.8934C150.293 37.0398 149.927 37.2492 149.614 37.5218C149.301 37.7893 149.059 38.1123 148.887 38.4909C148.721 38.8694 148.637 39.2909 148.637 39.7552C148.637 40.2297 148.726 40.6435 148.902 40.9968C149.084 41.3451 149.329 41.6479 149.637 41.9054C149.945 42.1628 150.29 42.3899 150.674 42.5867C151.057 42.7785 151.454 42.9602 151.862 43.1319C152.206 43.2782 152.483 43.4195 152.695 43.5558C152.912 43.6921 153.076 43.8284 153.187 43.9647C153.303 44.1009 153.379 44.2498 153.415 44.4113ZM142.366 36.8242H138.83V47.8475H141.048V43.8046H142.171L143.834 47.8475H146.204V47.7415L144.262 43.2168C144.511 43.0814 144.734 42.9215 144.932 42.7371C145.23 42.4545 145.46 42.1037 145.621 41.6848C145.783 41.2608 145.863 40.751 145.863 40.1554C145.863 39.4286 145.725 38.8179 145.447 38.3233C145.169 37.8286 144.771 37.4551 144.251 37.2028C143.731 36.9504 143.103 36.8242 142.366 36.8242ZM141.048 41.9649H142.305C142.608 41.9649 142.858 41.8993 143.055 41.7681C143.257 41.6318 143.405 41.4425 143.501 41.2002C143.602 40.9529 143.653 40.6652 143.653 40.3371C143.653 39.9889 143.607 39.6911 143.516 39.4438C143.431 39.1914 143.292 38.9996 143.1 38.8684C142.913 38.7321 142.669 38.664 142.366 38.664H141.048V41.9649ZM135.267 46.0154V47.8475H131.164H130.475H128.945V36.8242H130.475H131.164H135.252V38.664H131.164V41.2911H134.624V43.0703H131.164V46.0154H135.267ZM120.948 43.9636H122.492C123.234 43.9636 123.873 43.8198 124.408 43.5321C124.943 43.2444 125.352 42.8406 125.634 42.3207C125.922 41.7958 126.066 41.1775 126.066 40.4658C126.066 39.7592 125.922 39.1334 125.634 38.5882C125.352 38.0381 124.943 37.6066 124.408 37.2936C123.873 36.9807 123.234 36.8242 122.492 36.8242H118.737V47.8475H120.948V43.9636ZM120.948 42.1239H122.492C122.805 42.1239 123.06 42.0532 123.257 41.9119C123.459 41.7706 123.605 41.5763 123.696 41.3289C123.787 41.0766 123.833 40.7939 123.833 40.481C123.833 40.163 123.785 39.8677 123.689 39.5952C123.598 39.3176 123.454 39.093 123.257 38.9214C123.065 38.7498 122.81 38.664 122.492 38.664H120.948V42.1239ZM115.729 41.4816V43.3213C115.729 44.0986 115.633 44.78 115.442 45.3655C115.255 45.9459 114.987 46.433 114.639 46.8267C114.296 47.2153 113.879 47.508 113.39 47.7049C112.905 47.9017 112.368 48.0002 111.777 48.0002C111.187 48.0002 110.647 47.9017 110.157 47.7049C109.673 47.508 109.254 47.2153 108.9 46.8267C108.552 46.433 108.282 45.9459 108.09 45.3655C107.898 44.78 107.803 44.0986 107.803 43.3213V41.4816C107.803 40.6841 107.896 39.9876 108.083 39.392C108.269 38.7914 108.539 38.2917 108.893 37.8929C109.246 37.4892 109.665 37.1863 110.15 36.9844C110.634 36.7775 111.172 36.674 111.762 36.674C112.353 36.674 112.89 36.7775 113.375 36.9844C113.859 37.1863 114.278 37.4892 114.632 37.8929C114.985 38.2917 115.255 38.7914 115.442 39.392C115.633 39.9876 115.729 40.6841 115.729 41.4816ZM113.526 43.3213V41.4664C113.526 40.9415 113.488 40.4948 113.413 40.1264C113.337 39.7529 113.223 39.4475 113.072 39.2103C112.92 38.9731 112.736 38.7989 112.519 38.6879C112.302 38.5768 112.05 38.5213 111.762 38.5213C111.474 38.5213 111.22 38.5768 110.997 38.6879C110.78 38.7989 110.596 38.9731 110.445 39.2103C110.298 39.4475 110.187 39.7529 110.112 40.1264C110.041 40.4948 110.006 40.9415 110.006 41.4664V43.3213C110.006 43.826 110.044 44.2576 110.119 44.6159C110.195 44.9743 110.309 45.267 110.46 45.4942C110.611 45.7213 110.796 45.8904 111.013 46.0014C111.235 46.1074 111.49 46.1604 111.777 46.1604C112.06 46.1604 112.31 46.1074 112.527 46.0014C112.749 45.8904 112.933 45.7213 113.079 45.4942C113.226 45.267 113.337 44.9743 113.413 44.6159C113.488 44.2576 113.526 43.826 113.526 43.3213ZM105.771 47.8475V46.0154H101.872V36.8242H99.6533V47.8475H101.19H101.872H105.771ZM96.9624 46.0154V47.8475H92.8589H92.17H90.6406V36.8242H92.17H92.8589H96.9472V38.664H92.8589V41.2911H96.3188V43.0703H92.8589V46.0154H96.9624ZM83.3866 47.8475H82.7279L79.5557 36.8242H81.9254L83.86 44.8794L85.8017 36.8242H88.1941L84.9992 47.8475H84.3481H83.3866ZM77.5923 46.0154V47.8475H73.4888H72.7998H71.2705V36.8242H72.7998H73.4888H77.5771V38.664H73.4888V41.2911H76.9487V43.0703H73.4888V46.0154H77.5923ZM63.3257 47.8475H63.9844C64.6355 47.8475 65.2235 47.7441 65.7484 47.5371C66.2733 47.3302 66.72 47.0299 67.0885 46.6362C67.462 46.2374 67.7497 45.7504 67.9516 45.175C68.1535 44.5996 68.2544 43.9384 68.2544 43.1914V41.4879C68.2544 40.746 68.1535 40.0848 67.9516 39.5043C67.7497 38.9239 67.462 38.4368 67.0885 38.0431C66.715 37.6444 66.2683 37.3416 65.7484 37.1346C65.2285 36.9277 64.6506 36.8242 64.0147 36.8242H63.3257H62.0008H61.1074V47.8475H62.0387H63.3257ZM63.3257 46.0154H63.9844C64.5194 46.0154 64.9358 45.9195 65.2336 45.7277C65.5314 45.5359 65.7408 45.233 65.862 44.8191C65.9882 44.4053 66.0513 43.8627 66.0513 43.1914V41.4728C66.0513 40.963 66.0184 40.5315 65.9528 40.1782C65.8872 39.8198 65.7762 39.5321 65.6197 39.3151C65.4632 39.093 65.2538 38.9289 64.9913 38.8229C64.7289 38.717 64.4033 38.664 64.0147 38.664H63.3257V46.0154ZM145.749 29.4354V27.6032H141.645V24.6581H145.105V22.879H141.645V20.2519H145.733V18.4121H141.645H140.956H139.427V29.4354H140.956H141.645H145.749ZM136.892 27.6032V29.4354H132.789H132.1H130.57V18.4121H132.1H132.789H136.877V20.2519H132.789V22.879H136.249V24.6581H132.789V27.6032H136.892ZM124.288 18.4121H120.752V29.4354H122.97V25.3925H124.093L125.756 29.4354H128.126V29.3294L126.184 24.8047C126.433 24.6693 126.656 24.5094 126.854 24.325C127.152 24.0424 127.382 23.6916 127.543 23.2727C127.705 22.8487 127.785 22.3389 127.785 21.7433C127.785 21.0165 127.647 20.4058 127.369 19.9112C127.091 19.4165 126.693 19.043 126.173 18.7907C125.653 18.5383 125.024 18.4121 124.288 18.4121ZM124.227 23.5528H122.97V20.2519H124.288C124.59 20.2519 124.835 20.32 125.022 20.4563C125.214 20.5875 125.353 20.7793 125.438 21.0317C125.529 21.279 125.575 21.5768 125.575 21.925C125.575 22.2531 125.524 22.5408 125.423 22.7881C125.327 23.0304 125.178 23.2197 124.977 23.3559C124.78 23.4872 124.53 23.5528 124.227 23.5528ZM115.476 20.2519V29.4354H113.273V20.2519H110.585V18.4121H113.273H115.476H118.216V20.2519H115.476ZM98.9288 27.6032V29.4354H95.0298H94.3484H92.8115V18.4121H95.0298V27.6032H98.9288ZM90.2687 29.4354V27.6032H86.3697V18.4121H84.1514V29.4354H85.6883H86.3697H90.2687ZM78.3835 18.4121H77.8308H76.8996H76.3696L72.9248 29.4354H75.2642L75.8586 27.1641H78.9058L79.504 29.4354H81.8585L78.3835 18.4121ZM77.3773 21.361L76.3401 25.3244H78.4212L77.3773 21.361ZM63.4773 29.4354H62.5385L60.5625 18.4121H62.7505L63.8073 25.388L65.1202 18.4121H65.8016H66.2861H66.96L68.2753 25.3808L69.3297 18.4121H71.5101L69.5492 29.4354H68.5953H68.1486H67.3309L66.0399 22.8715L64.7417 29.4354H63.9316H63.4773ZM76.2858 4.46686V0H78.4814V11.0233H76.2858V6.29903H72.9849V11.0233H70.7666V0H72.9849V4.46686H76.2858ZM65.4992 1.83974V11.0233H63.2961V1.83974H60.6084V0H63.2961H65.4992H68.2399V1.83974H65.4992Z" fill="white"/>
</svg>
